<?xml version="1.0" standalone="no"?>
<!DOCTYPE svg PUBLIC "-//W3C//DTD SVG 1.1//EN" "http://www.w3.org/Graphics/SVG/1.1/DTD/svg11.dtd" >
<svg xmlns="http://www.w3.org/2000/svg">
<metadata></metadata>
<defs>
<font id="mint_spirit_no2bold" horiz-adv-x="1284" >
<font-face units-per-em="2048" ascent="1536" descent="-512" />
<missing-glyph horiz-adv-x="614" />
<glyph horiz-adv-x="2048" />
<glyph horiz-adv-x="2048" />
<glyph unicode="&#xd;" horiz-adv-x="2048" />
<glyph unicode=" "  horiz-adv-x="614" />
<glyph unicode="&#x09;" horiz-adv-x="614" />
<glyph unicode="&#xa0;" horiz-adv-x="614" />
<glyph unicode="!" horiz-adv-x="673" d="M199 115q0 59 40.5 100t98.5 41t99.5 -41t41.5 -100q0 -58 -41 -99t-100 -41q-58 0 -98.5 40.5t-40.5 99.5zM213 756v678h248v-678l-12 -334h-224z" />
<glyph unicode="&#x22;" horiz-adv-x="770" d="M143 967v487l232 -147l-113 -385zM438 967v487l232 -147l-113 -385z" />
<glyph unicode="#" horiz-adv-x="1249" d="M29 356v211h286l50 215h-244v213h293l86 375h213l-86 -375h137l84 375h211l-82 -375h240v-213h-287l-47 -215h243v-211h-290l-78 -356h-213l80 356h-146l-82 -356h-213l82 356h-237zM528 567h142l47 215h-139z" />
<glyph unicode="$" horiz-adv-x="976" d="M49 150l123 165l29 -20q73 -51 111 -68t98 -20v309q-171 34 -246 119.5t-80 222.5q0 142 87.5 234.5t238.5 109.5v232h157v-228q118 -15 256 -106l27 -21l-119 -176l-31 25q-3 2 -19.5 15.5t-23.5 18t-22.5 14t-32 14t-35.5 7.5v-280q178 -33 270.5 -119t92.5 -238 q0 -157 -94.5 -251t-268.5 -113v-252h-157v250q-186 10 -336 135zM309 868q3 -49 26.5 -77t74.5 -43v249q-46 -11 -73.5 -45t-27.5 -84zM567 215q133 29 133 133q0 46 -27.5 79.5t-105.5 53.5v-266z" />
<glyph unicode="%" horiz-adv-x="1910" d="M88 961q0 123 22.5 215.5t55.5 145t79.5 84.5t87 42t85.5 10q161 0 246.5 -129t85.5 -368q0 -120 -22.5 -211.5t-55.5 -143t-80 -83.5t-88 -42t-86 -10t-85 9.5t-87 41t-80 83t-55.5 143.5t-22.5 213zM254 961q0 -345 162 -345q164 0 164 345q0 344 -164 344 q-162 0 -162 -344zM487 -25l785 1483h162l-775 -1483h-172zM1161 459q0 483 330 483q162 0 247 -123t85 -360q0 -101 -15 -181t-42 -130.5t-58.5 -85t-71.5 -52t-73.5 -24t-71.5 -6.5q-330 0 -330 479zM1327 459q0 -334 162 -334q164 0 164 334q0 180 -43 254.5t-121 74.5 q-162 0 -162 -329z" />
<glyph unicode="&#x26;" horiz-adv-x="1378" d="M82 412q0 111 51 196t143 131q-163 88 -163 287q0 175 119.5 277t316.5 102q95 0 239 -66l33 -16l-102 -217l-33 24q-28 20 -40 28t-33 15t-44 7q-42 0 -77.5 -8t-67.5 -26.5t-50 -54t-18 -85.5q0 -162 207 -162h82v-226h-76q-117 0 -180 -54t-63 -152q0 -100 80 -156.5 t237 -56.5q65 0 136 25.5t123 74t52 104.5v29q1 29 1.5 74.5t0.5 85.5v53t-0.5 50.5t-1 41t-0.5 29.5v12h-120v191h120v223h230v-223h121v-191h-121v-55q0 -52 1 -140.5t1 -117.5q0 -56 -2 -70q0 -88 -36.5 -161t-94 -119.5t-131.5 -78.5t-146 -45.5t-141 -13.5 q-255 0 -404 114t-149 321z" />
<glyph unicode="'" horiz-adv-x="514" d="M143 967v487l230 -147l-113 -385z" />
<glyph unicode="(" horiz-adv-x="575" d="M84 553q0 210 65 437.5t191 445.5l10 18h205l-27 -53q-204 -418 -204 -848q0 -417 204 -805l29 -55h-205l-12 18q-256 418 -256 842z" />
<glyph unicode=")" horiz-adv-x="579" d="M18 -307l31 55q203 390 203 805q0 209 -51 427.5t-152 418.5l-29 55h205l11 -18q124 -215 190 -442.5t66 -440.5q0 -426 -256 -842l-11 -18h-207z" />
<glyph unicode="*" horiz-adv-x="788" d="M55 1028l207 127l-207 125l72 141l188 -133v240h154v-240l190 133l70 -141l-207 -125l209 -127l-74 -137l-188 131v-242h-154v242l-188 -131z" />
<glyph unicode="+" horiz-adv-x="915" d="M45 455v233h301v348h217v-348h307v-233h-307v-349h-217v349h-301z" />
<glyph unicode="," horiz-adv-x="487" d="M53 -272l217 469l181 -115l-275 -440z" />
<glyph unicode="-" horiz-adv-x="808" d="M141 348v211h527v-211h-527z" />
<glyph unicode="." horiz-adv-x="520" d="M113 115q0 59 40.5 100t98.5 41t99.5 -41t41.5 -100q0 -58 -41 -99t-100 -41q-58 0 -98.5 40.5t-40.5 99.5z" />
<glyph unicode="/" horiz-adv-x="765" d="M-72 -23l797 1483h203l-799 -1483h-201z" />
<glyph unicode="0" horiz-adv-x="1245" d="M164 711q0 133 16 243t42 185.5t63.5 133.5t77 92t86 55t86.5 28.5t83 7.5q224 0 342.5 -193t118.5 -552q0 -131 -16 -239t-43 -183t-65 -132.5t-78 -91t-87.5 -54.5t-88 -28.5t-83.5 -7.5t-83 7t-86.5 28t-86 54.5t-77 90.5t-63.5 132t-42 183.5t-16 240.5zM385 711 q0 -541 233 -541q236 0 236 541q0 540 -236 540q-233 0 -233 -540z" />
<glyph unicode="1" horiz-adv-x="808" d="M49 1198l98 236h351v-1219h194v-215h-626v215h194v983h-211z" />
<glyph unicode="2" horiz-adv-x="1077" d="M106 1083v35q1 93 59 172.5t147 123.5t182 44q196 0 318 -114.5t122 -303.5v-6q0 -111 -44 -210.5t-110 -174.5l-381 -434h545v-215h-831v199l465 532q73 86 104 154t31 137q0 98 -61 161.5t-160 63.5h-5q-72 0 -121.5 -41.5t-52.5 -91.5l-2 -31h-205z" />
<glyph unicode="3" horiz-adv-x="1136" d="M80 346h225l6 -24q22 -80 80 -116t135 -36q107 0 167.5 62.5t60.5 175.5q0 108 -56.5 171.5t-160.5 63.5l-175 -2v221h173q91 0 141.5 51t50.5 140q0 94 -52 147t-151 53q-163 0 -190 -141l-4 -29h-221l2 39q14 156 125.5 246t293.5 90q190 0 304 -102.5t114 -284.5 q0 -104 -45.5 -184.5t-128.5 -126.5q96 -48 149 -138t56 -214q0 -204 -116 -318.5t-331 -114.5q-192 0 -306.5 84.5t-139.5 247.5z" />
<glyph unicode="4" horiz-adv-x="1173" d="M102 358v172l635 904h140v-861h186v-215h-186v-356h-232v356h-543zM356 573h289v408z" />
<glyph unicode="5" horiz-adv-x="1021" d="M76 170l137 152l12 -27q15 -12 38.5 -30.5t79.5 -49.5t91 -33q98 0 170 75t72 196q0 122 -81 197t-198 75q-109 0 -223 -63l-43 -25v797h672v-220h-443v-284q12 4 29.5 5.5t38 1.5t27.5 1q90 0 170 -33t141 -93.5t97 -153.5t36 -205q0 -220 -134 -349t-349 -129 q-79 0 -168.5 44t-155.5 128z" />
<glyph unicode="6" horiz-adv-x="1206" d="M119 444q0 83 26 162.5t68 134.5l514 729l174 -112l-297 -420q201 0 342 -140.5t141 -342.5q0 -199 -141 -338.5t-342 -139.5q-132 0 -243.5 61.5t-176.5 169t-65 236.5zM356 453q0 -114 74.5 -193.5t175.5 -79.5q102 0 177 79.5t75 193.5q0 115 -75 197.5t-177 82.5 q-101 0 -175.5 -82t-74.5 -198z" />
<glyph unicode="7" horiz-adv-x="958" d="M66 1219v215h829l-471 -1434h-217l397 1219h-538z" />
<glyph unicode="8" horiz-adv-x="1218" d="M152 408q0 121 51 213t147 141q-76 45 -115.5 126.5t-39.5 186.5q0 176 107.5 278.5t303.5 102.5q193 0 304.5 -100t111.5 -281q0 -222 -158 -313q94 -47 144 -137t53 -215q0 -205 -116.5 -320t-336.5 -115q-221 0 -338.5 111t-117.5 322zM379 410q0 -112 58 -176 t169 -64q108 0 169 63.5t61 176.5t-58.5 176t-171.5 63q-110 0 -168.5 -61t-58.5 -178zM416 1055q0 -39 8.5 -72t29 -63t59.5 -47t93 -17q94 0 143.5 52t49.5 147q0 196 -193 196q-190 0 -190 -196z" />
<glyph unicode="9" horiz-adv-x="1208" d="M119 950q0 138 65 254.5t176 184t242 67.5q132 0 243.5 -66t176.5 -181t65 -253q0 -193 -94 -319l-520 -727l-174 110l303 422q-131 0 -242 67t-176 184t-65 257zM348 952q0 -125 75 -215t177 -90q101 0 175.5 89.5t74.5 215.5q0 124 -74.5 211.5t-175.5 87.5 q-102 0 -177 -87t-75 -212z" />
<glyph unicode=":" horiz-adv-x="518" d="M113 115q0 59 40.5 100t98.5 41t99.5 -41t41.5 -100q0 -58 -41 -99t-100 -41q-58 0 -98.5 40.5t-40.5 99.5zM113 752q0 59 40.5 100t98.5 41t99.5 -41.5t41.5 -99.5t-41 -99t-100 -41q-58 0 -98.5 40.5t-40.5 99.5z" />
<glyph unicode=";" horiz-adv-x="522" d="M53 -272l226 465l188 -113l-289 -438zM137 748q0 59 40.5 102t98.5 43t100 -43t42 -102t-41.5 -99.5t-100.5 -40.5q-58 0 -98.5 40.5t-40.5 99.5z" />
<glyph unicode="&#x3c;" horiz-adv-x="1210" d="M41 428v190l1089 406v-227l-747 -275l747 -272v-227z" />
<glyph unicode="=" horiz-adv-x="1370" d="M141 246v217h1088v-217h-1088zM141 580v217h1088v-217h-1088z" />
<glyph unicode="&#x3e;" horiz-adv-x="1214" d="M82 23v227l747 272l-747 275v227l1092 -406v-190z" />
<glyph unicode="?" horiz-adv-x="856" d="M102 1059v37q3 172 99.5 266t232.5 94q139 0 226.5 -84t93.5 -221q0 -50 -21 -101.5t-46.5 -86t-59 -78.5t-47.5 -70q-10 -16 -29 -45.5t-27 -42.5t-18.5 -32t-14.5 -32.5t-4 -25.5v-4l-2 -4v-17q0 -54 35 -94.5t82 -46.5l74 -10l-58 -51q-54 -50 -114 -50h-19 q-64 3 -119.5 45.5t-85.5 100.5t-30 112q0 97 37 178t108 169q117 123 117 176q0 48 -20.5 69t-75.5 21q-40 0 -67.5 -36t-31.5 -103l-2 -33h-213zM301 113q0 59 40.5 100t98.5 41q59 0 100.5 -41.5t41.5 -99.5t-41.5 -99t-100.5 -41q-58 0 -98.5 40.5t-40.5 99.5z" />
<glyph unicode="@" horiz-adv-x="1642" d="M68 455q0 173 63 326t169 259.5t249 168t299 61.5q144 0 278 -55.5t233.5 -150t159.5 -228t60 -281.5q0 -242 -141.5 -383t-390.5 -147h-39v77q-87 -75 -220 -75q-151 0 -247.5 120t-96.5 308q0 182 97 303t252 121q130 0 221 -76v57h192v-620q85 30 132 109.5t48 203.5 q0 118 -45.5 218.5t-121.5 167.5t-172 105.5t-199 40.5q-169 0 -305.5 -87t-210.5 -229.5t-74 -309.5q0 -131 46 -246.5t124.5 -196t184.5 -127.5t223 -47q102 0 198 43t172 107l29 24l115 -149l-27 -23q-213 -180 -487 -186q-170 0 -315.5 65.5t-243.5 175.5t-153.5 254.5 t-55.5 301.5zM651 451q0 -104 45 -163t131 -59q78 0 126 58.5t48 163.5q0 104 -47 163.5t-127 59.5q-78 0 -125.5 -57.5t-50.5 -165.5z" />
<glyph unicode="A" horiz-adv-x="1198" d="M20 0l517 1434h125l516 -1434h-240l-152 451h-368l-154 -451h-244zM487 655h230l-115 338z" />
<glyph unicode="B" horiz-adv-x="1163" d="M141 0v1434h459q196 0 311 -98.5t115 -270.5q0 -219 -149 -297q97 -50 149.5 -142t52.5 -216q0 -195 -120 -302.5t-341 -107.5h-477zM371 205h235q120 0 180 53.5t60 173.5q0 116 -59.5 169.5t-180.5 53.5h-235v-450zM371 860h217q119 0 166 47.5t47 134.5 q0 86 -48.5 135t-164.5 52h-217v-369z" />
<glyph unicode="C" horiz-adv-x="1185" d="M84 711q0 344 168 545.5t455 201.5q218 0 401 -135l31 -23l-119 -163l-27 20q-127 92 -272 92q-194 0 -299 -137.5t-105 -400.5q0 -85 10.5 -157.5t38.5 -143t72 -120t116.5 -80t166.5 -30.5q142 0 260 86l27 19l131 -156l-31 -25q-171 -129 -401 -129q-287 0 -455 196 t-168 540z" />
<glyph unicode="D" horiz-adv-x="1325" d="M141 0v1440h375q364 0 542.5 -173.5t178.5 -547.5q0 -372 -177 -545.5t-544 -173.5h-375zM373 205h170q243 0 352 125.5t109 388.5q0 262 -109 386t-352 124h-170v-1024z" />
<glyph unicode="E" horiz-adv-x="1044" d="M141 0v1434h832v-205h-600v-369h463v-205h-463v-450h614v-205h-846z" />
<glyph unicode="F" horiz-adv-x="1046" d="M141 0v1434h832v-205h-600v-369h463v-205h-463v-655h-232z" />
<glyph unicode="G" horiz-adv-x="1316" d="M84 715q0 351 171.5 547t471.5 196q239 0 436 -131l29 -20l-127 -172l-29 18q-141 96 -297 96q-424 0 -424 -534q0 -527 422 -527q161 0 250 50v335h-264v205h494v-645q-98 -84 -228 -121t-262 -37q-301 0 -472 194.5t-171 545.5z" />
<glyph unicode="H" d="M141 0v1434h230v-574h540v574h232v-1434h-232v655h-540v-655h-230z" />
<glyph unicode="I" horiz-adv-x="514" d="M141 0v1434h232v-1434h-232z" />
<glyph unicode="J" horiz-adv-x="630" d="M12 0v215h78q65 0 101 22t55.5 86t19.5 183v928h232v-936q0 -88 -10.5 -159.5t-38 -136t-71 -108t-112.5 -69t-160 -25.5h-94z" />
<glyph unicode="K" horiz-adv-x="1163" d="M141 0v1434h234v-537l502 537h292l-637 -670l676 -764h-293l-540 612v-612h-234z" />
<glyph unicode="L" horiz-adv-x="972" d="M141 0v1434h232v-1229h590v-205h-822z" />
<glyph unicode="M" horiz-adv-x="1435" d="M141 0v1434h103l477 -629l471 629h102v-1434h-229v891l-344 -459l-350 459v-891h-230z" />
<glyph unicode="N" d="M141 0v1434h103l667 -891v891h232v-1434h-103l-669 891v-891h-230z" />
<glyph unicode="O" horiz-adv-x="1554" d="M96 711q0 337 186 542t492 205q302 0 491 -205.5t189 -541.5q0 -337 -184.5 -536.5t-495.5 -199.5q-308 0 -493 199t-185 537zM317 711q0 -245 127 -390t330 -145q131 0 234 62t164 184.5t61 288.5q0 241 -126.5 389.5t-332.5 148.5q-199 0 -328 -144.5t-129 -393.5z" />
<glyph unicode="P" horiz-adv-x="1124" d="M141 0v1434h457q223 0 344 -109t121 -326q0 -210 -119 -318t-342 -108h-229v-573h-232zM373 778h227q46 0 84.5 11t73 35t54 69.5t19.5 107.5q0 223 -231 228h-227v-451z" />
<glyph unicode="Q" horiz-adv-x="1554" d="M96 711q0 337 186 542t492 205q302 0 491 -205.5t189 -541.5q0 -270 -121 -456t-334 -249l283 -319l-160 -142l-360 430q-303 6 -484.5 204.5t-181.5 531.5zM317 711q0 -245 127 -390t330 -145q131 0 234 62t164 184.5t61 288.5q0 241 -126.5 389.5t-332.5 148.5 q-199 0 -328 -144.5t-129 -393.5z" />
<glyph unicode="R" horiz-adv-x="1163" d="M141 0v1434h469q202 0 317 -109.5t115 -316.5q-18 -303 -254 -394l365 -614h-248l-342 573h-190v-573h-232zM373 778h231q93 0 154 55.5t61 176.5q0 110 -54 163t-161 56h-231v-451z" />
<glyph unicode="S" horiz-adv-x="1007" d="M86 139l150 172q101 -116 225 -125q112 0 175.5 55.5t63.5 147.5q0 93 -34.5 141t-124.5 72l-113 23q-167 41 -236 141t-71 264q0 189 116.5 308.5t305.5 119.5h4q207 0 352 -186l-149 -154q-3 5 -9.5 14t-27.5 31.5t-43 40t-55 31.5t-66 14q-91 0 -146.5 -50t-56.5 -134 q2 -90 26.5 -132t104.5 -67l109 -24q180 -44 263 -149t83 -285q0 -208 -128.5 -320.5t-350.5 -112.5q-86 0 -188.5 44t-178.5 120z" />
<glyph unicode="T" horiz-adv-x="1091" d="M20 1229v205h1051v-205h-409v-1229h-230v1229h-412z" />
<glyph unicode="U" horiz-adv-x="1263" d="M129 539v895h231v-865q0 -214 62 -304.5t211 -90.5q53 0 93 10.5t75.5 37t58.5 70.5t36 113.5t13 163.5v865h226v-895q0 -280 -128 -422t-372 -142t-375 141.5t-131 422.5z" />
<glyph unicode="V" horiz-adv-x="1198" d="M20 1434h244l338 -994l336 994h240l-516 -1434h-125z" />
<glyph unicode="W" horiz-adv-x="2031" d="M20 1434h244l338 -994l336 994h160l338 -994l336 994h239l-516 -1434h-125l-354 985l-354 -985h-125z" />
<glyph unicode="X" horiz-adv-x="1122" d="M-16 0l456 762l-399 672h242l286 -486l289 486h244l-414 -693l438 -741h-239l-328 555l-330 -555h-245z" />
<glyph unicode="Y" horiz-adv-x="1095" d="M-20 1434h243l328 -537l326 537h239l-454 -754v-680h-228v680z" />
<glyph unicode="Z" horiz-adv-x="1097" d="M4 0l696 1229h-653v205h1026l-698 -1229h690v-205h-1061z" />
<glyph unicode="[" horiz-adv-x="624" d="M141 -293v1727h432v-203h-202v-1321h202v-203h-432z" />
<glyph unicode="\" horiz-adv-x="694" d="M12 1270l221 2l449 -1473l-221 -2z" />
<glyph unicode="]" horiz-adv-x="622" d="M51 -90h203v1321h-203v203h430v-1727h-430v203z" />
<glyph unicode="^" horiz-adv-x="1171" d="M-6 725l500 535h184l502 -535h-258l-336 334l-338 -334h-254z" />
<glyph unicode="_" horiz-adv-x="901" d="M-10 -242h915v-192h-915v192z" />
<glyph unicode="`" horiz-adv-x="579" d="M43 1391l182 116l250 -381l-129 -104z" />
<glyph unicode="a" horiz-adv-x="1058" d="M86 297q0 167 119.5 252.5t345.5 85.5h176q0 43 -20.5 75t-55 49t-71.5 24.5t-78 7.5q-73 -1 -127.5 -23t-85.5 -49l-35 -31l-109 182l29 19q156 104 340 104q65 0 126.5 -13t118.5 -42.5t99.5 -72t68 -106.5t25.5 -141v-618h-223v51q-100 -71 -270 -71 q-174 0 -273.5 83.5t-99.5 233.5zM319 305q0 -64 42.5 -98.5t119.5 -34.5q110 0 177.5 69t70.5 189h-117q-177 0 -235 -23.5t-58 -101.5z" />
<glyph unicode="b" horiz-adv-x="1153" d="M150 0v1434h229v-461h262q190 0 305 -134t115 -358q0 -220 -115.5 -350.5t-306.5 -130.5h-489zM379 205h227q65 0 110.5 23.5t69 65t33.5 87t10 100.5q0 56 -10 103t-33.5 90.5t-69.5 68.5t-110 25h-227v-563z" />
<glyph unicode="c" horiz-adv-x="976" d="M90 481q0 140 67 258t182.5 186t252.5 68h16q81 0 165 -30.5t151 -90.5l24 -24l-153 -166l-27 27q-75 79 -174 79q-108 0 -187 -91t-79 -216q0 -126 78.5 -213.5t187.5 -87.5q49 0 107 21.5t98 54.5l30 23l119 -177l-30 -20q-159 -105 -326 -105q-135 0 -250.5 66.5 t-183.5 182.5t-68 255z" />
<glyph unicode="d" horiz-adv-x="1153" d="M106 481q0 224 115 358t305 134h262v461h230v-1434h-490q-191 0 -306.5 130.5t-115.5 350.5zM338 481q0 -55 10 -100.5t33.5 -87t69 -65t110.5 -23.5h227v563h-227q-64 0 -110 -25t-69.5 -68.5t-33.5 -90.5t-10 -103z" />
<glyph unicode="e" horiz-adv-x="1103" d="M94 481q0 215 141.5 363.5t346.5 148.5h8q196 0 317 -124t140 -334v-93h-715q10 -110 86.5 -186t175.5 -76h16q146 0 246 111l23 22l149 -123l-20 -28q-66 -89 -175.5 -136t-240.5 -49q-207 0 -352.5 147t-145.5 357zM360 647h447q-15 45 -44.5 76t-65 43.5t-61.5 17 t-52 4.5q-62 0 -127 -43t-97 -98z" />
<glyph unicode="f" horiz-adv-x="686" d="M61 768v205h146v125q0 159 86.5 246t255.5 90h184v-205h-184q-59 0 -84.5 -26.5t-28.5 -100.5v-129h172v-205h-172v-768h-229v768h-146z" />
<glyph unicode="g" horiz-adv-x="1153" d="M106 492q0 220 115.5 350.5t306.5 130.5h490v-942q0 -492 -469 -492h-27q-104 0 -203 38.5t-163 115.5l-23 26l170 152l25 -35q32 -45 83.5 -71.5t114.5 -26.5q127 0 194 61.5t68 200.5h-262q-190 0 -305 134t-115 358zM338 492q0 -142 57.5 -213.5t165.5 -73.5h227v563 h-227q-65 0 -110.5 -23.5t-69 -65t-33.5 -87t-10 -100.5z" />
<glyph unicode="h" horiz-adv-x="1142" d="M150 0v1434h241v-461h266q365 0 365 -391v-582h-229v571q0 59 -11.5 98.5t-35 60.5t-52.5 29t-71 9h-232v-768h-241z" />
<glyph unicode="i" horiz-adv-x="512" d="M115 1313q0 59 40.5 101t98.5 42t99.5 -42t41.5 -101t-41 -99t-100 -40q-58 0 -98.5 40t-40.5 99zM141 0v973h230v-973h-230z" />
<glyph unicode="j" horiz-adv-x="509" d="M-135 -246h82q69 0 106.5 23t57.5 89t20 189v918h231v-920q0 -91 -11 -164.5t-38.5 -140.5t-72 -112t-115.5 -71t-164 -26h-96v215zM104 1313q0 59 41 101t99 42t99.5 -42t41.5 -101t-41 -99t-100 -40t-99.5 40.5t-40.5 98.5z" />
<glyph unicode="k" horiz-adv-x="1099" d="M150 0v1434h229v-809l319 348h285l-422 -451l539 -522h-314l-407 393v-393h-229z" />
<glyph unicode="l" horiz-adv-x="739" d="M150 354v1080h229v-1082q3 -86 29.5 -116.5t83.5 -30.5h182v-205h-182q-169 3 -255.5 95t-86.5 259z" />
<glyph unicode="m" horiz-adv-x="1898" d="M135 0v973h221v-76q96 96 252 96q201 0 350 -178q69 85 162 131.5t191 46.5q93 0 177.5 -36.5t149 -100.5t103 -159t39.5 -205v-492h-230v481q0 126 -71 216.5t-166 90.5q-96 0 -167 -91t-71 -216v-481h-223v481q0 126 -71.5 216.5t-166.5 90.5q-98 0 -169.5 -88.5 t-71.5 -220.5v-479h-238z" />
<glyph unicode="n" horiz-adv-x="1198" d="M135 0v973h221v-78q42 44 113 71t141 27q93 0 179 -38t150.5 -104t103 -162t38.5 -206v-483h-229v481q0 126 -70.5 216.5t-165.5 90.5q-93 0 -167 -97t-76 -212v-479h-238z" />
<glyph unicode="o" horiz-adv-x="1173" d="M90 477q0 140 67.5 259t183 188t251.5 69q206 0 350.5 -148.5t144.5 -361.5q0 -138 -66 -254.5t-180 -184t-249 -67.5q-136 0 -251.5 65.5t-183 180.5t-67.5 254zM328 481q0 -126 78.5 -213.5t187.5 -87.5q107 0 185.5 87.5t78.5 213.5t-78.5 216.5t-185.5 90.5 q-108 0 -187 -91t-79 -216z" />
<glyph unicode="p" horiz-adv-x="1153" d="M150 -461v1434h489q191 0 306.5 -130.5t115.5 -350.5q0 -224 -115 -358t-305 -134h-262v-461h-229zM379 205h227q64 0 110 25t69.5 68.5t33.5 90.5t10 103q0 55 -10 100.5t-33.5 87t-69 65t-110.5 23.5h-227v-563z" />
<glyph unicode="q" horiz-adv-x="1153" d="M106 492q0 220 115.5 350.5t306.5 130.5h490v-1434h-230v461h-262q-190 0 -305 134t-115 358zM338 492q0 -56 10 -103t33.5 -90.5t69.5 -68.5t110 -25h227v563h-227q-65 0 -110.5 -23.5t-69 -65t-33.5 -87t-10 -100.5z" />
<glyph unicode="r" horiz-adv-x="817" d="M150 0v973h229v-76q107 96 278 96q72 0 127 -32l29 -17l-80 -209l-39 23q-20 12 -28.5 16t-22.5 8t-31 4q-73 0 -126.5 -48t-79 -123.5t-27.5 -170.5v-444h-229z" />
<glyph unicode="s" horiz-adv-x="808" d="M94 137l168 137q2 -4 6.5 -10t20 -22.5t33 -29t44.5 -22.5t56 -10q50 0 71 18t23 60q0 36 -23.5 56.5t-82.5 43.5q-52 20 -87.5 36t-77.5 43.5t-67.5 58.5t-43.5 77.5t-19 102.5q0 142 91.5 229.5t239.5 87.5q47 0 92 -13.5t75 -32t54 -37.5t35 -32l11 -14l-131 -151 q-38 42 -71 61t-75 19q-38 0 -72 -21t-34 -55q2 -42 27.5 -71t84.5 -52q48 -17 84.5 -33t77.5 -42.5t67.5 -56.5t44 -74t17.5 -95v-4q0 -148 -86.5 -230t-253.5 -82q-87 0 -152.5 27.5t-96 60t-50.5 72.5z" />
<glyph unicode="t" horiz-adv-x="737" d="M150 350v879h229v-256h246v-205h-246v-412q3 -88 30 -119.5t83 -31.5h182v-205h-182q-169 3 -255.5 94t-86.5 256z" />
<glyph unicode="u" horiz-adv-x="1153" d="M106 506v467h232v-477q0 -55 10.5 -103t35 -92.5t71 -70t110.5 -25.5h223v768h230v-973h-490q-193 0 -307.5 137t-114.5 369z" />
<glyph unicode="v" horiz-adv-x="1103" d="M82 973h225l246 -615l244 615h225l-397 -973h-144z" />
<glyph unicode="w" horiz-adv-x="1726" d="M82 973h225l246 -615l244 615h133l246 -615l243 615h226l-398 -973h-143q0 17 -240 586l-239 -586h-144z" />
<glyph unicode="x" horiz-adv-x="964" d="M2 0l332 487l-332 486h270l195 -293l199 293h268l-328 -486l328 -487h-270l-197 289l-193 -289h-272z" />
<glyph unicode="y" horiz-adv-x="1103" d="M39 -246h82q68 0 146 35t102 80l65 154l-352 950h225l246 -664l244 664h225l-432 -1168q-30 -80 -86 -135.5t-123.5 -82t-126 -37t-119.5 -11.5h-96v215z" />
<glyph unicode="z" horiz-adv-x="913" d="M76 0v182l477 576h-461v215h744v-189l-478 -569h478v-215h-760z" />
<glyph unicode="{" horiz-adv-x="776" d="M20 541v207h86q96 0 130 39.5t34 160.5v217q0 148 33 226t113 111.5t233 33.5h86v-205h-88q-51 0 -76 -4.5t-43 -23.5t-23 -50.5t-7 -93.5v-223q0 -116 -24 -186t-85 -107q61 -39 85 -108.5t24 -182.5v-225q0 -105 26.5 -133.5t122.5 -28.5h88v-205h-86q-113 0 -182 15.5 t-115 57t-64 110.5t-18 180v217q0 118 -34 159.5t-130 41.5h-86z" />
<glyph unicode="|" horiz-adv-x="497" d="M141 -381v1815h215v-1815h-215z" />
<glyph unicode="}" horiz-adv-x="772" d="M41 -35h90q94 0 118.5 27.5t24.5 134.5v225q0 110 24 180t87 111q-61 38 -86 108.5t-25 184.5v223q0 114 -24.5 143t-118.5 29h-90v205h88q90 0 151.5 -11t106.5 -35.5t70 -68.5t36 -105t11 -151v-217q0 -121 33.5 -160.5t130.5 -39.5h82v-207h-82q-67 0 -100 -15.5 t-48.5 -58t-15.5 -127.5v-217q0 -110 -17 -178t-62 -110.5t-114 -58.5t-182 -16h-88v205z" />
<glyph unicode="~" horiz-adv-x="1300" d="M96 299v246q162 139 340 139q63 0 124 -17.5t102 -38t95.5 -38t106.5 -17.5q64 0 125 28.5t137 96.5l58 52v-248q-163 -139 -338 -142q-68 0 -130 18t-101 39.5t-92.5 39.5t-106.5 18q-70 0 -133 -34.5t-129 -92.5z" />
<glyph unicode="&#xa2;" horiz-adv-x="937" d="M68 479q0 214 109.5 346t314.5 158v191h157v-189q124 -10 215 -57l21 -10v-226l-56 31q-88 48 -180 59v-606q89 12 180 62l56 30v-225l-23 -10q-89 -38 -213 -51v-236h-157v240q-201 22 -312.5 150.5t-111.5 342.5zM303 479q0 -116 47.5 -193.5t141.5 -101.5v592 q-94 -24 -141.5 -103t-47.5 -194z" />
<glyph unicode="&#xa3;" horiz-adv-x="960" d="M49 0v223h187v330h-156v205h156v225q0 120 29.5 210.5t71.5 139.5t101 79t105 38.5t96 9.5q104 -3 190.5 -53t133.5 -137l12 -23l-127 -147l-27 30q-6 6 -21 23t-19.5 21t-16.5 16.5t-16.5 16t-15.5 11.5t-18 10t-17.5 6t-21.5 5.5t-24 1.5h-6q-39 0 -68 -12t-52.5 -41.5 t-35.5 -85.5t-12 -139v-205h303v-205h-303v-330h443v-223h-871z" />
<glyph unicode="&#xa5;" horiz-adv-x="1060" d="M16 1434h230l286 -590l285 590h232l-254 -533h233v-182h-323l-52 -105v-2h375v-184h-373v-428h-243v428h-375v184h375v2l-54 105h-321v182h233z" />
<glyph unicode="&#xa8;" horiz-adv-x="829" d="M102 1202q0 58 39.5 101t96.5 43t96 -43t39 -101t-38.5 -99.5t-96.5 -41.5t-97 41.5t-39 99.5zM457 1202q0 58 39 101t96 43t96 -43t39 -101t-38.5 -99.5t-96.5 -41.5t-96.5 41.5t-38.5 99.5z" />
<glyph unicode="&#xa9;" horiz-adv-x="1484" d="M74 684q0 146 55.5 276t147.5 220t213 142t249 52q142 0 268 -57.5t212.5 -152.5t137 -220.5t50.5 -259.5q0 -187 -90 -344.5t-243.5 -248.5t-334.5 -91q-138 0 -262 55.5t-212 148t-139.5 218.5t-51.5 262zM236 684q0 -108 41.5 -205.5t110.5 -166t161 -108.5t190 -40 q142 0 259 71t182 190.5t65 258.5q0 119 -43 218.5t-114.5 164t-160.5 101t-184 38.5q-134 0 -251 -70t-186.5 -190.5t-69.5 -261.5zM330 684q0 196 117.5 314t316.5 118q131 0 246 -53l20 -8v-201l-51 29q-79 46 -203 53q-109 0 -168 -65t-59 -187q0 -123 59.5 -188.5 t175.5 -65.5q101 0 195 51l51 29v-197l-18 -8q-111 -54 -244 -57q-197 0 -317.5 118.5t-120.5 317.5z" />
<glyph unicode="&#xab;" horiz-adv-x="948" d="M53 438v101l439 409v-256l-218 -203l218 -204v-250zM397 438v101l441 409v-256l-222 -203l222 -204v-250z" />
<glyph unicode="&#xad;" horiz-adv-x="808" d="M141 348v211h527v-211h-527z" />
<glyph unicode="&#xae;" horiz-adv-x="1157" d="M78 934q0 110 41.5 208t110.5 166.5t160 108t188 39.5q106 0 200.5 -43.5t159.5 -116t103 -167t38 -195.5q0 -106 -40 -202t-107.5 -165t-160 -110t-193.5 -41q-139 0 -254.5 71t-180.5 190t-65 257zM215 936q0 -180 131 -295v590q-61 -54 -96 -130.5t-35 -164.5z M352 637q103 -80 223 -80q128 0 228 80h-101l-94 154q-17 28 -27.5 43.5t-21 22t-15.5 7.5t-20 2h-4v-229h-168zM375 1253h186q65 0 114 -13t76.5 -32t44.5 -46t22 -50.5t5 -50.5q0 -108 -96 -158q27 -36 47 -69l84 -140q80 108 80 240q0 87 -31 159t-83 118.5t-116 73 t-133 28.5q-108 0 -200 -60zM520 1006h41q48 0 67 9t19 42q0 24 -11 35.5t-26 14t-49 3.5h-41v-104z" />
<glyph unicode="&#xb4;" horiz-adv-x="579" d="M43 1126l250 381l182 -116l-303 -369z" />
<glyph unicode="&#xb8;" horiz-adv-x="419" d="M66 -129l30 31q88 88 88 127v37h111l-2 -39q-2 -46 -47 -115l119 -80l-33 -29q-24 -24 -38 -40t-31 -49.5t-17 -65.5q0 -57 47 -109h-21q-29 0 -59 8.5t-58 25.5t-46 49.5t-19 74.5q0 29 28.5 67t49.5 46z" />
<glyph unicode="&#xbb;" horiz-adv-x="948" d="M111 35v250l221 204l-221 203v256l440 -409v-101zM455 35v250l219 204l-219 203v256l440 -409v-101z" />
<glyph unicode="&#x2c6;" horiz-adv-x="755" d="M59 1102l240 317h160l237 -317l-170 -78l-145 178l-150 -178z" />
<glyph unicode="&#x2da;" horiz-adv-x="675" d="M102 1243q0 86 66 148.5t162 62.5q95 0 161.5 -61.5t69.5 -149.5q0 -87 -67.5 -148t-163.5 -61q-93 0 -160.5 60.5t-67.5 148.5zM264 1243q0 -23 19 -42t47 -19q29 0 49 18.5t20 42.5q0 22 -20 42t-49 20q-26 0 -46 -19t-20 -43z" />
<glyph unicode="&#x2dc;" horiz-adv-x="825" d="M12 1188l15 29q43 81 104.5 135t128.5 55q47 0 91.5 -18.5t71 -41t55 -41t48.5 -18.5h4q22 0 48 23t47 73l18 41l143 -102l-8 -27q-25 -77 -100 -138.5t-146 -61.5h-8q-52 0 -100 28t-88.5 59t-69.5 36h-2q-25 0 -47.5 -25t-52.5 -80l-21 -37z" />
<glyph unicode="&#x400;" horiz-adv-x="1044" d="M141 0v1434h832v-205h-600v-369h463v-205h-463v-450h614v-205h-846zM334 1833l182 94l250 -307l-129 -86z" />
<glyph unicode="&#x401;" horiz-adv-x="1044" d="M141 0v1434h832v-205h-600v-369h463v-205h-463v-450h614v-205h-846zM276 1681q0 58 39.5 101t96.5 43t96 -43t39 -101t-38.5 -99.5t-96.5 -41.5t-97 41.5t-39 99.5zM631 1681q0 58 39 101t96 43t96 -43t39 -101t-38.5 -99.5t-96.5 -41.5t-96.5 41.5t-38.5 99.5z" />
<glyph unicode="&#x402;" horiz-adv-x="1585" d="M20 1229v205h1166v-205h-467v-309h291q92 0 171.5 -25.5t142 -76t98.5 -134t36 -190.5q0 -140 -31.5 -276.5t-76 -237t-104 -194.5t-105 -148.5t-90.5 -98.5h-289q81 88 139.5 158.5t125 168.5t108 187.5t69 201t27.5 224.5v29q-3 108 -75 157.5t-183 51.5h-254l-2 -717 h-246v1229h-451z" />
<glyph unicode="&#x403;" horiz-adv-x="1150" d="M141 0v1434h936v-205h-706v-1229h-230zM465 1620l250 307l182 -94l-303 -299z" />
<glyph unicode="&#x404;" horiz-adv-x="1185" d="M84 711q0 344 168 545.5t455 201.5q218 0 401 -135l31 -23l-119 -163l-27 20q-127 92 -272 92q-194 0 -299 -137.5t-105 -400.5q0 -85 10.5 -157.5t38.5 -143t72 -120t116.5 -80t166.5 -30.5q142 0 260 86l27 19l131 -156l-31 -25q-171 -129 -401 -129q-287 0 -455 196 t-168 540z" />
<glyph unicode="&#x405;" horiz-adv-x="1007" d="M86 139l150 172q101 -116 225 -125q112 0 175.5 55.5t63.5 147.5q0 93 -34.5 141t-124.5 72l-113 23q-167 41 -236 141t-71 264q0 189 116.5 308.5t305.5 119.5h4q207 0 352 -186l-149 -154q-3 5 -9.5 14t-27.5 31.5t-43 40t-55 31.5t-66 14q-91 0 -146.5 -50t-56.5 -134 q2 -90 26.5 -132t104.5 -67l109 -24q180 -44 263 -149t83 -285q0 -208 -128.5 -320.5t-350.5 -112.5q-86 0 -188.5 44t-178.5 120z" />
<glyph unicode="&#x406;" horiz-adv-x="514" d="M141 0v1434h232v-1434h-232z" />
<glyph unicode="&#x407;" horiz-adv-x="514" d="M-49 1681q0 58 39 101t96 43t96 -43t39 -101t-38.5 -99.5t-96.5 -41.5t-96.5 41.5t-38.5 99.5zM141 0v1434h232v-1434h-232zM305 1681q0 58 39 101t96 43t96 -43t39 -101t-38.5 -99.5t-96.5 -41.5t-96.5 41.5t-38.5 99.5z" />
<glyph unicode="&#x408;" horiz-adv-x="630" d="M12 -25v215h78q65 0 101 22t55.5 86t19.5 183v953h232v-961q0 -88 -10.5 -159.5t-38 -136t-71 -108t-112.5 -69t-160 -25.5h-94z" />
<glyph unicode="&#x409;" horiz-adv-x="1998" d="M12 -25v213h82q72 0 111 22.5t58.5 85.5t19.5 183v955h819v-574h246q117 0 209 -24.5t150.5 -66t97 -100.5t54 -123t15.5 -138q0 -202 -121.5 -305t-388.5 -103h-526l-2 1223h-293v-754q0 -245 -105.5 -369.5t-326.5 -124.5h-99zM1104 205h260q139 0 208.5 56t69.5 175 q0 216 -286 219h-252v-450z" />
<glyph unicode="&#x40a;" horiz-adv-x="1974" d="M141 0v1434h230v-574h559v574h227v-574h258q94 0 170 -18.5t127 -52t87 -75.5t56 -94t28.5 -101.5t8.5 -104.5q0 -198 -125 -306t-348 -108h-489v655h-559v-655h-230zM1157 205h250q134 0 194 54t60 177q0 117 -60 168t-194 51h-250v-450z" />
<glyph unicode="&#x40b;" horiz-adv-x="1515" d="M20 1229v205h1166v-205h-504v-307h315q389 0 389 -387v-535h-227v512q0 117 -48 162t-157 47h-272v-721h-227v1229h-435z" />
<glyph unicode="&#x40c;" d="M141 0v1434h232v-566l606 566h307l-676 -623q118 -33 220 -100t172.5 -149t122 -175.5t77 -183t27.5 -168.5l2 -35h-232v35q-1 85 -47.5 187.5t-126 197.5t-199.5 171t-253 103v-694h-232zM532 1620l250 307l183 -94l-303 -299z" />
<glyph unicode="&#x40d;" d="M141 0v1434h232v-891l667 891h103v-1434h-230v891l-669 -891h-103zM444 1835l183 92l250 -305l-129 -84z" />
<glyph unicode="&#x40e;" horiz-adv-x="1177" d="M20 1434h261l348 -760l284 760h244l-295 -838q-32 -74 -53 -120t-51 -108t-53 -99.5t-54.5 -84t-60.5 -74t-66.5 -56.5t-76.5 -44t-86.5 -25t-100.5 -10h-98v213h82q93 0 159 69.5t66 145.5q0 48 -16 64zM385 1763l156 54l8 -39q6 -31 20.5 -52t32.5 -29.5t30 -11 t23 -2.5h11q54 0 84 26t32 63l2 51l160 -66l-2 -28q-6 -96 -82 -165t-188 -69h-6q-111 0 -190.5 66t-88.5 172z" />
<glyph unicode="&#x40f;" horiz-adv-x="1339" d="M141 0v1434h234v-1229h592v1229h231v-1434h-393l-35 -322h-203l-32 322h-394z" />
<glyph unicode="&#x410;" horiz-adv-x="1198" d="M20 0l517 1434h125l516 -1434h-240l-152 451h-368l-154 -451h-244zM487 655h230l-115 338z" />
<glyph unicode="&#x411;" horiz-adv-x="1259" d="M141 0v1434h820v-205h-592v-367l293 -2q122 0 215.5 -27.5t149 -70t90 -103.5t47 -119.5t12.5 -125.5q0 -200 -130.5 -307t-377.5 -107h-527zM369 205h286q154 0 221.5 54t67.5 177q0 117 -67.5 168t-221.5 51h-286v-450z" />
<glyph unicode="&#x412;" horiz-adv-x="1163" d="M141 0v1434h459q196 0 311 -98.5t115 -270.5q0 -219 -149 -297q97 -50 149.5 -142t52.5 -216q0 -195 -120 -302.5t-341 -107.5h-477zM371 205h235q120 0 180 53.5t60 173.5q0 116 -59.5 169.5t-180.5 53.5h-235v-450zM371 860h217q119 0 166 47.5t47 134.5 q0 86 -48.5 135t-164.5 52h-217v-369z" />
<glyph unicode="&#x413;" horiz-adv-x="1150" d="M141 0v1434h936v-205h-706v-1229h-230z" />
<glyph unicode="&#x414;" horiz-adv-x="1527" d="M53 205h123q77 8 135 107t58 251v871h979v-1229h131l-27 -504h-195l-18 299h-946l-23 -307h-192zM543 205h565v1024h-490v-670q0 -88 -19.5 -191t-55.5 -163z" />
<glyph unicode="&#x415;" horiz-adv-x="1044" d="M141 0v1434h832v-205h-600v-369h463v-205h-463v-450h614v-205h-846z" />
<glyph unicode="&#x416;" horiz-adv-x="2072" d="M53 1434h307l607 -566v566h235v-566l606 566h306l-674 -623q118 -33 220 -100t172.5 -148.5t121.5 -175.5t76.5 -183t27.5 -169v-35h-229v35q-1 68 -29.5 151t-84.5 166.5t-129 153t-172.5 113t-205.5 43.5h-6v-662h-235v662q-108 0 -208.5 -43.5t-174.5 -112.5 t-130 -153t-84.5 -167t-29.5 -151v-35h-231l2 35q2 80 27.5 169t76.5 183t121.5 176t172 148.5t218.5 99.5z" />
<glyph unicode="&#x417;" horiz-adv-x="1245" d="M86 360h236l6 -26q49 -166 264 -166q131 0 204.5 63t73.5 181q0 114 -69 178.5t-195 64.5l-213 -2v207h213q110 0 173 51t63 144q0 98 -63.5 149t-186.5 51q-201 0 -236 -155l-6 -29h-235l4 39q15 164 138 256t335 92q219 0 345 -100.5t126 -284.5q0 -102 -46 -183.5 t-130 -127.5q97 -47 150.5 -139t56.5 -215q0 -207 -128.5 -320t-373.5 -113q-220 0 -347.5 86t-152.5 258z" />
<glyph unicode="&#x418;" d="M141 0v1434h232v-891l667 891h103v-1434h-230v891l-669 -891h-103z" />
<glyph unicode="&#x419;" d="M141 0v1434h232v-891l667 891h103v-1434h-230v891l-669 -891h-103zM393 1800l156 53l8 -38q6 -31 20.5 -52t33 -29.5t30.5 -11t23 -2.5h10q54 0 84.5 26t32.5 62l2 52l159 -66l-2 -29q-6 -95 -82 -164t-188 -69h-6q-111 0 -190.5 66t-88.5 171z" />
<glyph unicode="&#x41a;" d="M141 0v1434h232v-566l606 566h307l-676 -623q118 -33 220 -100t172.5 -149t122 -175.5t77 -183t27.5 -168.5l2 -35h-232v35q-1 85 -47.5 187.5t-126 197.5t-199.5 171t-253 103v-694h-232z" />
<glyph unicode="&#x41b;" horiz-adv-x="1423" d="M12 -25v209h82q72 0 110.5 23.5t57.5 87.5t19 184v955h1001v-1434h-229v1227h-521v-758q0 -247 -101 -370.5t-320 -123.5h-99z" />
<glyph unicode="&#x41c;" horiz-adv-x="1435" d="M141 0v1434h103l477 -629l471 629h102v-1434h-229v891l-344 -459l-350 459v-891h-230z" />
<glyph unicode="&#x41d;" d="M141 0v1434h230v-574h540v574h232v-1434h-232v655h-540v-655h-230z" />
<glyph unicode="&#x41e;" horiz-adv-x="1554" d="M96 711q0 337 186 542t492 205q302 0 491 -205.5t189 -541.5q0 -337 -184.5 -536.5t-495.5 -199.5q-308 0 -493 199t-185 537zM317 711q0 -245 127 -390t330 -145q131 0 234 62t164 184.5t61 288.5q0 241 -126.5 389.5t-332.5 148.5q-199 0 -328 -144.5t-129 -393.5z" />
<glyph unicode="&#x41f;" horiz-adv-x="1286" d="M141 0v1434h1004v-1434h-230v1229h-544v-1229h-230z" />
<glyph unicode="&#x420;" horiz-adv-x="1124" d="M141 0v1434h457q223 0 344 -109t121 -326q0 -210 -119 -318t-342 -108h-229v-573h-232zM373 778h227q46 0 84.5 11t73 35t54 69.5t19.5 107.5q0 223 -231 228h-227v-451z" />
<glyph unicode="&#x421;" horiz-adv-x="1185" d="M84 711q0 344 168 545.5t455 201.5q218 0 401 -135l31 -23l-119 -163l-27 20q-127 92 -272 92q-194 0 -299 -137.5t-105 -400.5q0 -85 10.5 -157.5t38.5 -143t72 -120t116.5 -80t166.5 -30.5q142 0 260 86l27 19l131 -156l-31 -25q-171 -129 -401 -129q-287 0 -455 196 t-168 540z" />
<glyph unicode="&#x422;" horiz-adv-x="1091" d="M20 1229v205h1051v-205h-409v-1229h-230v1229h-412z" />
<glyph unicode="&#x423;" horiz-adv-x="1177" d="M20 1434h261l348 -760l284 760h244l-295 -838q-32 -74 -53 -120t-51 -108t-53 -99.5t-54.5 -84t-60.5 -74t-66.5 -56.5t-76.5 -44t-86.5 -25t-100.5 -10h-98v213h82q93 0 159 69.5t66 145.5q0 48 -16 64z" />
<glyph unicode="&#x424;" horiz-adv-x="1785" d="M68 717q0 275 179.5 440.5t524.5 194.5v82h229v-80q353 -25 535 -188t182 -449q0 -285 -182.5 -448.5t-534.5 -188.5v-80h-229v82q-346 29 -525 193t-179 442zM274 717q0 -186 125 -302t373 -145v893q-245 -27 -371.5 -142.5t-126.5 -303.5zM1001 268q252 24 375 139 t123 310q0 192 -123.5 308t-374.5 140v-897z" />
<glyph unicode="&#x425;" horiz-adv-x="1122" d="M-16 0l456 762l-399 672h242l286 -486l289 486h244l-414 -693l438 -741h-239l-328 555l-330 -555h-245z" />
<glyph unicode="&#x426;" horiz-adv-x="1413" d="M139 0v1434h234v-1229h633v1229h233v-1229h152l-25 -512h-195l-22 307h-1010z" />
<glyph unicode="&#x427;" horiz-adv-x="1257" d="M141 862v572h228v-586q0 -60 11 -97.5t37.5 -58.5t61 -28.5t90.5 -8.5h332v779h227v-1434h-227v451h-373q-189 0 -288 107t-99 304z" />
<glyph unicode="&#x428;" horiz-adv-x="1904" d="M141 0v1434h232v-1229h465v1229h229v-1229h463v1229h233v-1434h-1622z" />
<glyph unicode="&#x429;" horiz-adv-x="1914" d="M139 0v1434h232v-1227h465v1227h229v-1227h463v1227h233v-1229h131l-26 -504h-195l-18 299h-1514z" />
<glyph unicode="&#x42a;" horiz-adv-x="1376" d="M20 1227v207h461v-574h295q122 0 215 -27.5t148 -70t89.5 -103.5t47 -119.5t12.5 -125.5q0 -202 -137.5 -308t-409.5 -106h-487v1229zM481 205h252q172 0 248 54t76 177q0 117 -75.5 168t-248.5 51h-252v-450z" />
<glyph unicode="&#x42b;" horiz-adv-x="1703" d="M141 0v1434h228v-574h278q102 0 184 -18.5t137 -52t94.5 -75.5t60.5 -94t30.5 -101.5t9.5 -104.5q0 -198 -135.5 -306t-376.5 -108h-510zM369 205h270q145 0 209.5 54t64.5 177q0 117 -64.5 168t-209.5 51h-270v-450zM1333 0v1434h230v-1434h-230z" />
<glyph unicode="&#x42c;" horiz-adv-x="1261" d="M141 0v1434h228v-574h295q122 0 215 -27.5t148 -70t89.5 -103.5t47 -119.5t12.5 -125.5q0 -200 -131 -307t-377 -107h-527zM369 205h286q153 0 221 54t68 177q0 117 -67.5 168t-221.5 51h-286v-450z" />
<glyph unicode="&#x42d;" horiz-adv-x="1304" d="M84 127l137 162l27 -19q126 -92 299 -92q223 0 342 121t133 356h-748v205h742q-32 197 -151.5 294t-317.5 97q-176 0 -309 -100l-29 -21l-125 173l29 20q192 135 444 135q333 0 515.5 -201.5t182.5 -545.5t-183 -540t-515 -196q-263 0 -442 129z" />
<glyph unicode="&#x42e;" horiz-adv-x="2177" d="M141 0v1434h230v-574h256q41 276 237.5 439t493.5 163q217 0 382.5 -93.5t255 -263t89.5 -390.5q0 -335 -194.5 -535t-532.5 -200q-320 0 -520 181t-220 486h-247v-647h-230zM846 715q0 -248 143 -392.5t369 -144.5q222 0 365 143t143 394q0 248 -141.5 394t-366.5 146 q-107 0 -200 -36t-162.5 -103.5t-109.5 -170.5t-40 -230z" />
<glyph unicode="&#x42f;" horiz-adv-x="1267" d="M39 0l2 37q3 54 25 128.5t61 159t104.5 169t143.5 143.5q-228 92 -244 377v2q0 207 126 312.5t355 105.5h516v-1434h-229v573h-213q-97 -43 -177.5 -118t-127.5 -153.5t-72.5 -148.5t-25.5 -116v-37h-244zM360 1012q0 -112 65.5 -173t195.5 -61h278v451h-278 q-134 -3 -197.5 -56t-63.5 -161z" />
<glyph unicode="&#x430;" horiz-adv-x="1058" d="M86 297q0 167 119.5 252.5t345.5 85.5h176q0 43 -20.5 75t-55 49t-71.5 24.5t-78 7.5q-73 -1 -127.5 -23t-85.5 -49l-35 -31l-109 182l29 19q156 104 340 104q65 0 126.5 -13t118.5 -42.5t99.5 -72t68 -106.5t25.5 -141v-618h-223v51q-100 -71 -270 -71 q-174 0 -273.5 83.5t-99.5 233.5zM319 305q0 -64 42.5 -98.5t119.5 -34.5q110 0 177.5 69t70.5 189h-117q-177 0 -235 -23.5t-58 -101.5z" />
<glyph unicode="&#x431;" horiz-adv-x="1277" d="M90 465q0 264 77 484t221 352.5t327 132.5h375v-205h-396q-89 0 -179.5 -96.5t-129.5 -214.5q63 42 120.5 58.5t133.5 16.5q240 0 396.5 -147t156.5 -363q0 -214 -154.5 -360t-392.5 -146q-241 0 -398 140.5t-157 347.5zM326 481q0 -126 95.5 -214.5t225.5 -88.5 q129 0 223.5 88.5t94.5 214.5t-95.5 218t-222.5 92q-130 0 -225.5 -91.5t-95.5 -218.5z" />
<glyph unicode="&#x432;" horiz-adv-x="1005" d="M94 0v973h383q209 0 318.5 -66.5t109.5 -191.5q0 -137 -108 -195q76 -34 118.5 -95t42.5 -142q0 -283 -450 -283h-414zM322 205h172q134 0 183.5 25t49.5 81q0 46 -57 65t-199 19h-149v-190zM322 600h145q201 0 201 88q0 78 -203 80h-143v-168z" />
<glyph unicode="&#x433;" horiz-adv-x="872" d="M150 0v979h661v-211h-432v-768h-229z" />
<glyph unicode="&#x434;" horiz-adv-x="1290" d="M55 205h107q52 5 79.5 28.5t41.5 81.5t14 164v19l-2 475h817v-768h133l-28 -504h-195l-18 299h-705l-25 -307h-192zM506 205h362v563h-319v-281q0 -178 -43 -282z" />
<glyph unicode="&#x435;" horiz-adv-x="1103" d="M94 481q0 215 141.5 363.5t346.5 148.5h8q196 0 317 -124t140 -334v-93h-715q10 -110 86.5 -186t175.5 -76h16q146 0 246 111l23 22l149 -123l-20 -28q-66 -89 -175.5 -136t-240.5 -49q-207 0 -352.5 147t-145.5 357zM360 647h447q-15 45 -44.5 76t-65 43.5t-61.5 17 t-52 4.5q-62 0 -127 -43t-97 -98z" />
<glyph unicode="&#x436;" horiz-adv-x="1843" d="M78 0v39q0 42 13.5 98.5t46.5 125.5t80.5 131t123 115t166.5 77l-412 387h301l414 -367v367h233v-367l416 367h301l-411 -387q78 -20 144.5 -60.5t111 -90.5t78.5 -105.5t53 -110.5t28 -100t9 -80v-39h-242v37q-1 46 -22.5 100.5t-64.5 110.5t-100 103.5t-136 79.5 t-165 38v-469h-233v469q-107 -7 -201.5 -55t-154 -114t-94 -136t-35.5 -127v-37h-248z" />
<glyph unicode="&#x437;" horiz-adv-x="1001" d="M57 133l115 193l35 -31q131 -117 282 -117q88 0 136.5 31.5t48.5 83.5q0 57 -40.5 93t-123.5 36h-213v184h211q63 0 107 31.5t44 62.5q0 28 -58 59.5t-109 31.5q-107 0 -203 -80l-31 -27l-141 197l30 20q55 40 147.5 66t197.5 26q89 0 161.5 -19t117 -48.5t74.5 -67 t42 -71.5t12 -66q0 -132 -113 -205q142 -78 142 -237q0 -40 -12.5 -78.5t-44.5 -79.5t-80.5 -71.5t-128 -50t-179.5 -19.5q-128 0 -234 37.5t-169 95.5z" />
<glyph unicode="&#x438;" horiz-adv-x="1177" d="M150 2v971h223v-656q69 97 176 259t182.5 278.5t77.5 118.5h250v-971h-225v614q-58 -78 -224 -311t-219 -303h-241z" />
<glyph unicode="&#x439;" horiz-adv-x="1177" d="M150 2v971h223v-656q69 97 176 259t182.5 278.5t77.5 118.5h250v-971h-225v614q-58 -78 -224 -311t-219 -303h-241zM324 1384l155 54l8 -39q19 -94 107 -94h10q54 0 84.5 26t32.5 62l2 51l160 -66l-2 -28q-6 -95 -82.5 -164.5t-188.5 -69.5h-6q-111 0 -190 66t-88 172z " />
<glyph unicode="&#x43a;" horiz-adv-x="1169" d="M150 0v973h227v-367l414 367h301l-410 -387q93 -24 168.5 -77t121.5 -114.5t77 -131.5t43 -125.5t12 -98.5v-39h-242v37q-1 46 -22 100.5t-64 110.5t-99.5 103.5t-135 79.5t-164.5 38v-469h-227z" />
<glyph unicode="&#x43b;" horiz-adv-x="1261" d="M12 -25v213h88q76 0 116.5 23.5t60.5 88.5t20 189v484h825v-973h-229v768h-334v-285q0 -252 -108 -380t-336 -128h-103z" />
<glyph unicode="&#x43c;" horiz-adv-x="2086" d="M135 0v479q0 225 149.5 369.5t381.5 144.5q118 0 219.5 -48t169.5 -130q72 85 174 131.5t223 46.5q148 0 263 -55t184 -168.5t69 -269.5v-500h-227v479q0 129 -86 220.5t-199 91.5q-115 0 -202 -91t-87 -221v-479h-223v483q0 125 -87 216.5t-198 91.5 q-117 0 -202.5 -88.5t-85.5 -223.5v-479h-236z" />
<glyph unicode="&#x43d;" horiz-adv-x="1230" d="M150 0v973h227v-373h491v373h230v-973h-230v395h-491v-395h-227z" />
<glyph unicode="&#x43e;" horiz-adv-x="1277" d="M90 477q0 142 70.5 259.5t198 187t286.5 69.5q158 0 283.5 -68t194.5 -184t69 -258q0 -214 -154.5 -360t-392.5 -146q-241 0 -398 143t-157 357zM326 481q0 -126 95.5 -214.5t225.5 -88.5q129 0 223.5 88.5t94.5 214.5t-95.5 218t-222.5 92q-130 0 -225.5 -91.5 t-95.5 -218.5z" />
<glyph unicode="&#x43f;" horiz-adv-x="1198" d="M150 0v973h917v-973h-229v768h-459v-768h-229z" />
<glyph unicode="&#x440;" horiz-adv-x="1253" d="M150 -461v1434h503q247 0 377.5 -129.5t130.5 -351.5q0 -228 -132.5 -360t-379.5 -132h-272v-461h-227zM377 205h241q149 0 231.5 70t82.5 217q0 276 -314 276h-241v-563z" />
<glyph unicode="&#x441;" horiz-adv-x="976" d="M90 481q0 140 67 258t182.5 186t252.5 68h16q81 0 165 -30.5t151 -90.5l24 -24l-153 -166l-27 27q-75 79 -174 79q-108 0 -187 -91t-79 -216q0 -126 78.5 -213.5t187.5 -87.5q49 0 107 21.5t98 54.5l30 23l119 -177l-30 -20q-159 -105 -326 -105q-135 0 -250.5 66.5 t-183.5 182.5t-68 255z" />
<glyph unicode="&#x442;" horiz-adv-x="1249" d="M86 768v205h1085v-205h-409v-768h-262v768h-414z" />
<glyph unicode="&#x443;" horiz-adv-x="1103" d="M39 -246h82q68 0 146 35t102 80l65 154l-352 950h225l246 -664l244 664h225l-432 -1168q-30 -80 -86 -135.5t-123.5 -82t-126 -37t-119.5 -11.5h-96v215z" />
<glyph unicode="&#x444;" horiz-adv-x="1282" d="M90 477q0 182 114 319.5t300 180.5v457h260v-451q191 -35 309.5 -174t118.5 -326q0 -184 -118.5 -322t-309.5 -173v-449h-260v453q-186 40 -300 172.5t-114 312.5zM326 481q0 -87 49 -159.5t129 -110.5v547q-79 -39 -128.5 -114t-49.5 -163zM764 201q89 35 145 110.5 t56 169.5q0 95 -56.5 173t-144.5 114v-567z" />
<glyph unicode="&#x445;" horiz-adv-x="964" d="M2 0l332 487l-332 486h270l195 -293l199 293h268l-328 -486l328 -487h-270l-197 289l-193 -289h-272z" />
<glyph unicode="&#x446;" horiz-adv-x="1275" d="M150 0v973h233v-764h500v764h233v-768h152l-25 -512h-194l-23 307h-876z" />
<glyph unicode="&#x447;" horiz-adv-x="1245" d="M150 713v260h227v-264q0 -125 49 -171.5t166 -48.5h293v484h227v-973h-227v285h-332q-197 0 -300 112.5t-103 315.5z" />
<glyph unicode="&#x448;" horiz-adv-x="1734" d="M150 0v973h231v-768h381v768h229v-768h377v768h234v-973h-1452z" />
<glyph unicode="&#x449;" horiz-adv-x="1761" d="M147 0v973h232v-766h381v766h229v-766h377v766h233v-768h134l-29 -504h-195l-18 299h-1344z" />
<glyph unicode="&#x44a;" horiz-adv-x="1280" d="M23 768v205h473v-205h100q130 0 229.5 -24t159 -63t97.5 -94t51.5 -110t13.5 -119q0 -167 -142.5 -262.5t-416.5 -95.5h-320v768h-245zM496 205h75q344 0 344 176q0 91 -74 136.5t-251 45.5h-94v-358z" />
<glyph unicode="&#x44b;" horiz-adv-x="1480" d="M135 0v973h227v-225h93q126 0 223.5 -22t157 -58.5t97 -88t52 -104.5t14.5 -115q0 -160 -145.5 -260t-390.5 -100h-328zM362 205h87q154 0 224 48.5t70 131.5q0 84 -65.5 121t-228.5 37h-87v-338zM1133 0v973h227v-973h-227z" />
<glyph unicode="&#x44c;" horiz-adv-x="1105" d="M135 0v973h227v-225h101q551 0 551 -390q0 -162 -141 -260t-398 -98h-340zM362 209h97q323 0 323 174q0 84 -71.5 122t-251.5 38h-97v-334z" />
<glyph unicode="&#x44d;" horiz-adv-x="1064" d="M90 100l123 195l33 -27q40 -37 105 -63.5t124 -26.5q110 0 199 64.5t117 163.5h-422v212h401q-40 78 -119.5 125.5t-173.5 47.5q-57 0 -110 -25.5t-88 -69.5l-29 -32l-160 186l29 22q138 121 336 121h18q123 0 228 -40t177 -109t113 -163t41 -200q0 -215 -156.5 -359.5 t-402.5 -144.5q-188 0 -350 105z" />
<glyph unicode="&#x44e;" horiz-adv-x="1759" d="M150 0v973h239v-359h213q47 168 191.5 273.5t343.5 105.5q118 0 220.5 -40t173.5 -108t111.5 -162t40.5 -200q0 -214 -154 -360t-392 -146q-220 0 -371 122t-178 311h-199v-410h-239zM819 481q0 -126 95 -214.5t225 -88.5q129 0 223 88.5t94 214.5q0 127 -95 218.5 t-222 91.5q-130 0 -225 -91.5t-95 -218.5z" />
<glyph unicode="&#x44f;" horiz-adv-x="1148" d="M98 0q1 58 83.5 164t170.5 170q-100 41 -158.5 121.5t-58.5 185.5q3 147 136 239.5t374 92.5h371v-973h-228v293h-139q-76 -33 -182 -136.5t-107 -156.5h-262zM371 631q0 -78 67.5 -105.5t255.5 -27.5h94v270h-94q-180 0 -251.5 -31.5t-71.5 -105.5z" />
<glyph unicode="&#x450;" horiz-adv-x="1103" d="M94 481q0 215 141.5 363.5t346.5 148.5h8q196 0 317 -124t140 -334v-93h-715q10 -110 86.5 -186t175.5 -76h16q146 0 246 111l23 22l149 -123l-20 -28q-66 -89 -175.5 -136t-240.5 -49q-207 0 -352.5 147t-145.5 357zM354 1485l183 117l249 -381l-129 -105zM360 647h447 q-15 45 -44.5 76t-65 43.5t-61.5 17t-52 4.5q-62 0 -127 -43t-97 -98z" />
<glyph unicode="&#x451;" horiz-adv-x="1103" d="M94 481q0 215 141.5 363.5t346.5 148.5h8q196 0 317 -124t140 -334v-93h-715q10 -110 86.5 -186t175.5 -76h16q146 0 246 111l23 22l149 -123l-20 -28q-66 -89 -175.5 -136t-240.5 -49q-207 0 -352.5 147t-145.5 357zM258 1257q0 58 39 101t96 43t96 -43t39 -101 t-38.5 -99.5t-96.5 -41.5t-96.5 41.5t-38.5 99.5zM360 647h447q-15 45 -44.5 76t-65 43.5t-61.5 17t-52 4.5q-62 0 -127 -43t-97 -98zM612 1257q0 58 39.5 101t96.5 43t96 -43t39 -101t-38.5 -99.5t-96.5 -41.5t-97 41.5t-39 99.5z" />
<glyph unicode="&#x452;" horiz-adv-x="1230" d="M78 1092v204h72v138h235v-138h457v-204h-457v-119h324q193 0 296 -115t103 -323q0 -74 -7.5 -144.5t-18 -127.5t-32.5 -118t-38.5 -103.5t-49.5 -98t-53 -87.5t-61 -85.5t-60.5 -77.5t-65.5 -78.5t-63 -75.5h-299q173 194 274.5 327.5t157 247.5t72.5 202.5t17 211.5v17 q0 118 -50 169.5t-161 53.5h-285l-2 -748h-233v1072h-72z" />
<glyph unicode="&#x453;" horiz-adv-x="872" d="M150 0v979h661v-211h-432v-768h-229zM264 1221l250 381l182 -117l-303 -369z" />
<glyph unicode="&#x454;" horiz-adv-x="976" d="M90 481q0 140 67 258t182.5 186t252.5 68h16q81 0 165 -30.5t151 -90.5l24 -24l-153 -166l-27 27q-75 79 -174 79q-91 0 -163.5 -67t-94.5 -168h274v-141h-276q22 -101 95 -166.5t165 -65.5q49 0 107 21.5t98 54.5l30 23l119 -177l-30 -20q-159 -105 -326 -105 q-135 0 -250.5 66.5t-183.5 182.5t-68 255z" />
<glyph unicode="&#x455;" horiz-adv-x="808" d="M94 137l168 137q2 -4 6.5 -10t20 -22.5t33 -29t44.5 -22.5t56 -10q50 0 71 18t23 60q0 36 -23.5 56.5t-82.5 43.5q-52 20 -87.5 36t-77.5 43.5t-67.5 58.5t-43.5 77.5t-19 102.5q0 142 91.5 229.5t239.5 87.5q47 0 92 -13.5t75 -32t54 -37.5t35 -32l11 -14l-131 -151 q-38 42 -71 61t-75 19q-38 0 -72 -21t-34 -55q2 -42 27.5 -71t84.5 -52q48 -17 84.5 -33t77.5 -42.5t67.5 -56.5t44 -74t17.5 -95v-4q0 -148 -86.5 -230t-253.5 -82q-87 0 -152.5 27.5t-96 60t-50.5 72.5z" />
<glyph unicode="&#x456;" horiz-adv-x="512" d="M115 1313q0 59 40.5 101t98.5 42t99.5 -42t41.5 -101t-41 -99t-100 -40q-58 0 -98.5 40t-40.5 99zM141 0v973h230v-973h-230z" />
<glyph unicode="&#x457;" horiz-adv-x="512" d="M-57 1257q0 58 39 101t96 43t96 -43t39 -101t-38.5 -99.5t-96.5 -41.5t-96.5 41.5t-38.5 99.5zM141 0v973h230v-973h-230zM297 1257q0 58 39 101t96 43t96 -43t39 -101t-38.5 -99.5t-96.5 -41.5t-96.5 41.5t-38.5 99.5z" />
<glyph unicode="&#x458;" horiz-adv-x="509" d="M-135 -246h82q69 0 106.5 23t57.5 89t20 189v918h231v-920q0 -91 -11 -164.5t-38.5 -140.5t-72 -112t-115.5 -71t-164 -26h-96v215zM104 1313q0 59 41 101t99 42t99.5 -42t41.5 -101t-41 -99t-100 -40t-99.5 40.5t-40.5 98.5z" />
<glyph unicode="&#x459;" horiz-adv-x="1767" d="M31 -25v213h86q75 0 115.5 24t61.5 91.5t21 194.5v14l-2 461h703v-205h106q121 0 215 -20t156 -54.5t102 -85t57 -108.5t17 -127q0 -166 -146.5 -269.5t-414.5 -103.5h-317v768h-238v-283q0 -123 -19.5 -211.5t-66 -157.5t-130 -104.5t-204.5 -36.5h-102zM1018 205h78 q342 0 342 176q0 87 -88 134.5t-250 47.5h-82v-358z" />
<glyph unicode="&#x45a;" horiz-adv-x="1611" d="M150 0v973h227v-225h352v225h227v-225h80q114 0 202 -23.5t142.5 -61.5t89.5 -91.5t48.5 -107.5t13.5 -116q0 -158 -132.5 -253t-355.5 -95h-315v543h-352v-543h-227zM956 205h78q266 0 266 166q0 86 -60.5 129t-205.5 43h-78v-338z" />
<glyph unicode="&#x45b;" horiz-adv-x="1230" d="M78 1092v204h72v138h227v-138h461v-204h-461v-119h328q403 0 403 -391v-582h-227v563q0 114 -50.5 158.5t-166.5 46.5h-287v-768h-227v1092h-72z" />
<glyph unicode="&#x45c;" horiz-adv-x="1169" d="M150 0v973h227v-367l414 367h301l-410 -387q93 -24 168.5 -77t121.5 -114.5t77 -131.5t43 -125.5t12 -98.5v-39h-242v37q-1 46 -22 100.5t-64 110.5t-99.5 103.5t-135 79.5t-164.5 38v-469h-227zM412 1221l250 381l182 -117l-303 -369z" />
<glyph unicode="&#x45d;" horiz-adv-x="1177" d="M150 2v971h223v-656q69 97 176 259t182.5 278.5t77.5 118.5h250v-971h-225v614q-58 -78 -224 -311t-219 -303h-241zM387 1485l182 117l250 -381l-129 -105z" />
<glyph unicode="&#x45e;" horiz-adv-x="1103" d="M39 -246h82q68 0 146 35t102 80l65 154l-352 950h225l246 -664l244 664h225l-432 -1168q-30 -80 -86 -135.5t-123.5 -82t-126 -37t-119.5 -11.5h-96v215zM272 1384l156 54l8 -39q19 -94 107 -94h10q54 0 84.5 26t32.5 62l2 51l159 -66l-2 -28q-6 -96 -82 -165t-188 -69 h-6q-111 0 -190.5 66t-88.5 172z" />
<glyph unicode="&#x45f;" horiz-adv-x="1263" d="M150 0v973h233v-768h518v768h232v-973h-353l-39 -322h-204l-35 322h-352z" />
<glyph unicode="&#x490;" horiz-adv-x="1265" d="M139 0v1434h856l23 307h194l25 -512h-864v-1229h-234z" />
<glyph unicode="&#x491;" horiz-adv-x="1050" d="M147 0v973h644l22 256h195l24 -461h-651v-768h-234z" />
<glyph unicode="&#x2000;" horiz-adv-x="963" />
<glyph unicode="&#x2001;" horiz-adv-x="1927" />
<glyph unicode="&#x2002;" horiz-adv-x="963" />
<glyph unicode="&#x2003;" horiz-adv-x="1927" />
<glyph unicode="&#x2004;" horiz-adv-x="642" />
<glyph unicode="&#x2005;" horiz-adv-x="481" />
<glyph unicode="&#x2006;" horiz-adv-x="321" />
<glyph unicode="&#x2007;" horiz-adv-x="321" />
<glyph unicode="&#x2008;" horiz-adv-x="240" />
<glyph unicode="&#x2009;" horiz-adv-x="385" />
<glyph unicode="&#x200a;" horiz-adv-x="107" />
<glyph unicode="&#x2010;" horiz-adv-x="808" d="M141 348v211h527v-211h-527z" />
<glyph unicode="&#x2011;" horiz-adv-x="808" d="M141 348v211h527v-211h-527z" />
<glyph unicode="&#x2012;" horiz-adv-x="808" d="M141 348v211h527v-211h-527z" />
<glyph unicode="&#x2013;" horiz-adv-x="1024" d="M141 348v211h742v-211h-742z" />
<glyph unicode="&#x2014;" horiz-adv-x="2048" d="M141 348v211h1766v-211h-1766z" />
<glyph unicode="&#x2018;" horiz-adv-x="528" d="M113 956v187l151 291h174l-76 -304v-174h-249z" />
<glyph unicode="&#x2019;" horiz-adv-x="518" d="M86 973l76 303v158h248v-170l-154 -291h-170z" />
<glyph unicode="&#x201a;" horiz-adv-x="522" d="M80 -233l78 301v174h250v-189l-154 -286h-174z" />
<glyph unicode="&#x201c;" horiz-adv-x="868" d="M113 956v187l151 291h176l-78 -304v-174h-249zM451 956v187l153 291h172l-74 -304v-174h-251z" />
<glyph unicode="&#x201d;" horiz-adv-x="862" d="M84 956l76 304v174h250v-187l-154 -291h-172zM422 956l76 304v174h252v-187l-150 -291h-178z" />
<glyph unicode="&#x201e;" horiz-adv-x="862" d="M80 -233l78 301v174h250v-189l-154 -286h-174zM420 -233l76 301v174h252v-189l-150 -286h-178z" />
<glyph unicode="&#x2022;" horiz-adv-x="790" d="M102 575q0 125 86 214.5t207 89.5q120 0 207.5 -89t87.5 -215t-88 -217.5t-211 -91.5q-115 0 -202 90.5t-87 218.5z" />
<glyph unicode="&#x2026;" horiz-adv-x="1560" d="M113 115q0 59 40.5 100t98.5 41t99.5 -41t41.5 -100q0 -58 -41 -99t-100 -41q-58 0 -98.5 40.5t-40.5 99.5zM633 115q0 59 40.5 100t98.5 41t99.5 -41t41.5 -100q0 -58 -41 -99t-100 -41q-58 0 -98.5 40.5t-40.5 99.5zM1153 115q0 59 40.5 100t98.5 41q59 0 100.5 -41.5 t41.5 -99.5t-41.5 -99t-100.5 -41q-58 0 -98.5 40.5t-40.5 99.5z" />
<glyph unicode="&#x202f;" horiz-adv-x="385" />
<glyph unicode="&#x2039;" horiz-adv-x="602" d="M53 438v101l439 409v-256l-218 -203l218 -204v-250z" />
<glyph unicode="&#x203a;" horiz-adv-x="604" d="M111 35v250l221 204l-221 203v256l440 -409v-101z" />
<glyph unicode="&#x205f;" horiz-adv-x="481" />
<glyph unicode="&#x20ac;" horiz-adv-x="1120" d="M18 453l72 188h98q-2 25 -2 74v30h-168l72 183h119q41 248 174.5 389t329.5 141q169 0 321 -133l25 -22l-119 -158l-27 22q-84 72 -188 72q-208 0 -268 -311h469l-76 -183h-420q-2 -14 -2 -43q0 -15 4 -61h377l-78 -188h-276q26 -122 93 -193.5t177 -71.5q95 0 166 60 l24 20l144 -137l-31 -27q-142 -127 -315 -127q-196 0 -328.5 124t-175.5 352h-191z" />
<glyph unicode="&#x2122;" horiz-adv-x="1341" d="M61 1272v162h490v-162h-162v-434h-168v434h-160zM569 838v596h201l119 -199l110 199h201v-596h-170v338l-98 -175h-82l-109 181v-344h-172z" />
<glyph unicode="&#x25fc;" horiz-adv-x="975" d="M0 0v975h975v-975h-975z" />
</font>
</defs>
</svg>
